<svg width="100%" height="100%" id="svg" viewBox="0 0 1440 690" xmlns="http://www.w3.org/2000/svg" class="transition duration-300 ease-in-out delay-150"><defs><linearGradient id="gradient" x1="32%" y1="97%" x2="68%" y2="3%"><stop offset="5%" stop-color="#6168f5"></stop><stop offset="95%" stop-color="#7d13ae"></stop></linearGradient></defs><path d="M 0,700 L 0,131 C 48.18329852758468,116.12990034100822 96.36659705516936,101.25980068201645 143,114 C 189.63340294483064,126.74019931798355 234.71691030690732,167.09069761294245 287,154 C 339.2830896930927,140.90930238705755 398.76576171720114,74.37740886621376 443,81 C 487.23423828279886,87.62259113378624 516.2200428242883,167.39966692220256 565,190 C 613.7799571757117,212.60033307779744 682.3540669856459,178.02392344497605 737,152 C 791.6459330143541,125.97607655502394 832.363689233128,108.50463929789315 879,95 C 925.636310766872,81.49536070210685 978.1911760818421,71.95751936345133 1028,91 C 1077.808823918158,110.04248063654867 1124.8716064395041,157.66528324830156 1171,159 C 1217.1283935604959,160.33471675169844 1262.3223981601418,115.38134764334242 1307,103 C 1351.6776018398582,90.61865235665758 1395.838800919929,110.80932617832879 1440,131 L 1440,700 L 0,700 Z" stroke="none" stroke-width="0" fill="url(#gradient)" fill-opacity="0.4" class="transition-all duration-300 ease-in-out delay-150 path-0" transform="rotate(-180 720 350)"></path><defs><linearGradient id="gradient" x1="32%" y1="97%" x2="68%" y2="3%"><stop offset="5%" stop-color="#6168f5"></stop><stop offset="95%" stop-color="#7d13ae"></stop></linearGradient></defs><path d="M 0,700 L 0,306 C 56.373813740780875,297.1630098601602 112.74762748156175,288.3260197203204 157,279 C 201.25237251843825,269.6739802796796 233.38330381453386,259.8589309788787 276,277 C 318.61669618546614,294.1410690211213 371.71915726030295,338.23825636416507 431,349 C 490.28084273969705,359.76174363583493 555.7400671442545,337.18804356446117 599,325 C 642.2599328557455,312.81195643553883 663.3205741626795,311.0095693779904 697,305 C 730.6794258373205,298.9904306220096 776.9776362050278,288.7736789235771 838,290 C 899.0223637949722,291.2263210764229 974.7688810172092,303.89571492770096 1026,305 C 1077.2311189827908,306.10428507229904 1103.9468397261362,295.6434613656189 1149,308 C 1194.0531602738638,320.3565386343811 1257.443760078247,355.5304396098232 1309,359 C 1360.556239921753,362.4695603901768 1400.2781199608767,334.23478019508843 1440,306 L 1440,700 L 0,700 Z" stroke="none" stroke-width="0" fill="url(#gradient)" fill-opacity="0.53" class="transition-all duration-300 ease-in-out delay-150 path-1" transform="rotate(-180 720 350)"></path><defs><linearGradient id="gradient" x1="32%" y1="97%" x2="68%" y2="3%"><stop offset="5%" stop-color="#6168f5"></stop><stop offset="95%" stop-color="#7d13ae"></stop></linearGradient></defs><path d="M 0,700 L 0,481 C 44.44149990747839,501.33713553094185 88.88299981495678,521.6742710618837 142,513 C 195.11700018504322,504.3257289381163 256.90950064765127,466.64005128340693 311,470 C 365.09049935234873,473.35994871659307 411.47899759443817,517.7655238044886 447,513 C 482.52100240556183,508.23447619551143 507.17450897459616,454.2978534986387 551,445 C 594.8254910254038,435.7021465013613 657.8229665071772,471.0430622009569 707,475 C 756.1770334928228,478.9569377990431 791.5336249966955,451.52989769753367 846,466 C 900.4663750033045,480.47010230246633 974.0425335060406,536.8373470089085 1031,546 C 1087.9574664939594,555.1626529910915 1128.2962409791428,517.1207142668322 1173,514 C 1217.7037590208572,510.8792857331677 1266.7725025773877,542.6797959237622 1312,543 C 1357.2274974226123,543.3202040762378 1398.613748711306,512.1601020381189 1440,481 L 1440,700 L 0,700 Z" stroke="none" stroke-width="0" fill="url(#gradient)" fill-opacity="1" class="transition-all duration-300 ease-in-out delay-150 path-2" transform="rotate(-180 720 350)"></path></svg>