<svg width="100%" height="100%" id="svg" viewBox="0 0 1440 690" xmlns="http://www.w3.org/2000/svg" class="transition duration-300 ease-in-out delay-150"><path d="M 0,700 L 0,131 C 29.25581188559341,121.55622093012911 58.51162377118682,112.11244186025822 81,113 C 103.48837622881318,113.88755813974178 119.20931680084612,125.10645348909622 141,140 C 162.79068319915388,154.89354651090378 190.6511090254287,173.46174418335684 212,157 C 233.3488909745713,140.53825581664316 248.1862470974391,89.04656977747636 275,100 C 301.8137529025609,110.95343022252364 340.60390258481505,184.35197670673767 368,185 C 395.39609741518495,185.64802329326233 411.39814256330084,113.54552339557294 435,90 C 458.60185743669916,66.45447660442706 489.8035271619815,91.46592971097056 516,127 C 542.1964728380185,162.53407028902944 563.3877487887734,208.59075776054485 586,188 C 608.6122512112266,167.40924223945515 632.645477682925,80.17103924684996 654,72 C 675.354522317075,63.82896075315004 694.0303404795263,134.7250852520553 714,170 C 733.9696595204737,205.2749147479447 755.2331603989697,204.92861974492885 781,178 C 806.7668396010303,151.07138025507115 837.0370179245948,97.56043576822934 867,97 C 896.9629820754052,96.43956423177066 926.6187679026514,148.82963718215382 946,166 C 965.3812320973486,183.17036281784618 974.4879104647994,165.12101550315555 1000,135 C 1025.5120895352006,104.87898449684447 1067.4295902381511,62.68630080522405 1093,71 C 1118.5704097618489,79.31369919477595 1127.7937285825951,138.13378127594825 1147,171 C 1166.2062714174049,203.86621872405175 1195.395495431469,210.77857409098294 1222,188 C 1248.604504568531,165.22142590901706 1272.6242896915278,112.75192236011996 1293,111 C 1313.3757103084722,109.24807763988004 1330.1073458024207,158.21373646853715 1354,170 C 1377.8926541975793,181.78626353146285 1408.9463270987897,156.39313176573143 1440,131 L 1440,700 L 0,700 Z" stroke="none" stroke-width="0" fill="#a06bcf" fill-opacity="0.4" class="transition-all duration-300 ease-in-out delay-150 path-0"></path><path d="M 0,700 L 0,306 C 19.304770485071217,329.64430923035974 38.60954097014243,353.2886184607195 62,343 C 85.39045902985757,332.7113815392805 112.86660660450147,288.48983538748195 139,262 C 165.13339339549853,235.51016461251805 189.9240326118516,226.75203998935285 211,251 C 232.0759673881484,275.24796001064715 249.43726294809204,332.50200465510665 277,341 C 304.56273705190796,349.49799534489335 342.32691559578006,309.2399413902206 367,289 C 391.67308440421994,268.7600586097794 403.2550746687878,268.53822978401075 423,278 C 442.7449253312122,287.46177021598925 470.6527857290687,306.6071394737361 495,313 C 519.3472142709313,319.3928605262639 540.1337824149377,313.03321232104497 564,300 C 587.8662175850623,286.96678767895503 614.81208461118,267.26001124208403 641,253 C 667.18791538882,238.73998875791594 692.617879140342,229.92674271061884 719,259 C 745.382120859658,288.07325728938116 772.7163988274518,355.0330179154406 793,354 C 813.2836011725482,352.9669820845594 826.5165255498512,283.9411856276188 852,269 C 877.4834744501488,254.05881437238125 915.217498973144,293.20223957408444 939,324 C 962.782501026856,354.79776042591556 972.6134785575728,377.24985607604356 995,371 C 1017.3865214424272,364.75014392395644 1052.3285867965647,329.79833612174116 1084,321 C 1115.6714132034353,312.20166387825884 1144.072174256169,329.556799436992 1163,326 C 1181.927825743831,322.443200563008 1191.3827161787588,297.97446613029086 1216,300 C 1240.6172838212412,302.02553386970914 1280.3969610287954,330.54533604184473 1308,346 C 1335.6030389712046,361.45466395815527 1351.0294397060584,363.8441897023301 1371,355 C 1390.9705602939416,346.1558102976699 1415.4852801469708,326.07790514883493 1440,306 L 1440,700 L 0,700 Z" stroke="none" stroke-width="0" fill="#a06bcf" fill-opacity="0.53" class="transition-all duration-300 ease-in-out delay-150 path-1"></path><path d="M 0,700 L 0,481 C 19.626364174891634,484.84421436925913 39.25272834978327,488.68842873851827 61,496 C 82.74727165021673,503.31157126148173 106.61545077575857,514.0904994151861 135,513 C 163.38454922424143,511.90950058481394 196.28546854718255,498.9495736007375 223,483 C 249.71453145281745,467.0504263992625 270.24267503551124,448.1112061818639 293,457 C 315.75732496448876,465.8887938181361 340.7438313107724,502.6056016718069 364,514 C 387.2561686892276,525.3943983281931 408.7819997213991,511.4663871309085 430,488 C 451.2180002786009,464.5336128690915 472.1281698036313,431.528849804559 498,423 C 523.8718301963687,414.471150195441 554.7053210640755,430.4182136508558 578,438 C 601.2946789359245,445.5817863491442 617.0505459400664,444.7982955920179 644,451 C 670.9494540599336,457.2017044079821 709.092495175659,470.38860398107283 731,498 C 752.907504824341,525.6113960189272 758.5794733572981,567.6472884836912 781,546 C 803.4205266427019,524.3527115163088 842.589611395149,439.0222420841624 870,440 C 897.410388604851,440.9777579158376 913.0620810621067,528.2637431796595 933,538 C 952.9379189378933,547.7362568203405 977.1620643564249,479.92278519719946 1003,448 C 1028.837935643575,416.07721480280054 1056.289661512194,420.0451160315425 1080,441 C 1103.710338487806,461.9548839684575 1123.6792895947988,499.89675067663086 1146,495 C 1168.3207104052012,490.10324932336914 1192.9931801086104,442.367881261934 1218,429 C 1243.0068198913896,415.632118738066 1268.3479899707588,436.6317242756332 1292,460 C 1315.6520100292412,483.3682757243668 1337.6148600083548,509.1052216355333 1362,513 C 1386.3851399916452,516.8947783644667 1413.1925699958226,498.94738918223334 1440,481 L 1440,700 L 0,700 Z" stroke="none" stroke-width="0" fill="#a06bcf" fill-opacity="1" class="transition-all duration-300 ease-in-out delay-150 path-2"></path></svg>